<svg width="898" height="151" viewBox="0 0 898 151" fill="none" xmlns="http://www.w3.org/2000/svg">
<g clip-path="url(#clip0_58_64)">
<path d="M27.7 56.2201L51.64 60.7101C53.37 61.0301 54.54 59.0001 53.4 57.6701L37.54 39.1801C36.92 38.4601 36.07 37.9701 35.14 37.7901L11.2 33.3001C9.47 32.9801 8.3 35.0101 9.44 36.3401L25.3 54.8301C25.92 55.5501 26.77 56.0401 27.7 56.2201Z" fill="black"/>
<path d="M28.32 91.4201L49.55 79.4701C51.08 78.6101 50.67 76.3001 48.94 76.0101L24.91 72.0401C23.97 71.8801 23.01 72.0501 22.18 72.5201L0.949998 84.4701C-0.580002 85.3301 -0.170002 87.6401 1.56 87.9301L25.59 91.9001C26.53 92.0601 27.49 91.8901 28.32 91.4201Z" fill="black"/>
<path d="M125.1 56.2201L101.16 60.7101C99.43 61.0301 98.26 59.0001 99.4 57.6701L115.26 39.1801C115.88 38.4601 116.73 37.9701 117.66 37.7901L141.6 33.3001C143.33 32.9801 144.5 35.0101 143.36 36.3401L127.5 54.8301C126.88 55.5501 126.03 56.0401 125.1 56.2201Z" fill="black"/>
<path d="M124.47 91.4201L103.24 79.4701C101.71 78.6101 102.12 76.3001 103.85 76.0101L127.88 72.0401C128.82 71.8801 129.78 72.0501 130.61 72.5201L151.84 84.4701C153.37 85.3301 152.96 87.6401 151.23 87.9301L127.2 91.9001C126.26 92.0601 125.3 91.8901 124.47 91.4201Z" fill="black"/>
<path d="M101.3 117.98L92.72 95.1801C92.1 93.5401 93.9 92.0301 95.41 92.9201L116.37 105.33C117.19 105.81 117.82 106.56 118.15 107.46L126.73 130.26C127.35 131.9 125.55 133.41 124.04 132.52L103.08 120.11C102.26 119.63 101.63 118.88 101.3 117.98Z" fill="black"/>
<path d="M51.43 117.98L60.01 95.1801C60.63 93.5401 58.83 92.0301 57.32 92.9201L36.36 105.33C35.54 105.81 34.91 106.56 34.58 107.46L26 130.26C25.38 131.9 27.18 133.41 28.69 132.52L49.65 120.11C50.47 119.63 51.1 118.88 51.43 117.98Z" fill="black"/>
<path d="M86.21 123.67L78.13 100.69C77.55 99.0301 75.2 99.0301 74.62 100.69L66.54 123.67C66.22 124.57 66.22 125.55 66.54 126.44L74.62 149.42C75.2 151.08 77.55 151.08 78.13 149.42L86.21 126.44C86.53 125.54 86.53 124.56 86.21 123.67Z" fill="black"/>
<path d="M49.84 28.85L65.3 47.68C66.42 49.04 68.62 48.24 68.6 46.48L68.34 22.12C68.33 21.17 67.99 20.25 67.39 19.51L51.93 0.680046C50.82 -0.679954 48.61 0.120046 48.63 1.88005L48.89 26.24C48.9 27.19 49.24 28.11 49.84 28.85Z" fill="black"/>
<path d="M84.4 22.12L84.14 46.48C84.12 48.24 86.32 49.04 87.44 47.68L102.9 28.85C103.5 28.11 103.84 27.19 103.85 26.24L104.11 1.88005C104.13 0.120046 101.93 -0.679954 100.81 0.680046L85.35 19.51C84.75 20.25 84.41 21.17 84.4 22.12Z" fill="black"/>
<path d="M244.28 41.9701C232.91 41.9701 224.82 46.5601 220.22 55.6301C219.85 56.3701 219.72 56.4001 219.36 56.4001C219.11 56.4001 219.07 56.3601 219.07 56.1101V17.3801H206.26V113.15H215.03L218 100.31C218.11 99.8501 218.27 99.7701 218.56 99.7701C218.98 99.7701 219.23 99.8801 219.56 100.54C224.39 110.21 232.71 115.11 244.27 115.11C260.31 115.11 277.56 103.67 277.56 78.5401C277.56 53.4101 260.3 41.9701 244.27 41.9701H244.28ZM241.52 103.62C227.27 103.62 218.41 94.0101 218.41 78.5401C218.41 63.0701 227.27 53.4601 241.52 53.4601C255.77 53.4601 264.63 63.0701 264.63 78.5401C264.63 94.0101 255.77 103.62 241.52 103.62Z" fill="black"/>
<path d="M302.13 54.79C301.87 55.7 301.7 55.74 301.3 55.74C300.9 55.74 300.88 55.7 300.88 55.32V43.93H288.07V113.14H300.88V73.94C300.88 61.59 306.11 56.08 317.83 56.08H326.37V43.54H319.53C310.34 43.54 304.49 47.32 302.13 54.79Z" fill="black"/>
<path d="M443.93 41.9702C432.33 41.9702 425.11 46.0602 420.53 55.2302C420.32 55.6502 420.19 55.7402 419.8 55.7402C419.55 55.7402 419.51 55.7002 419.51 55.4502V43.9302H406.7V113.14H419.51V77.2202C419.51 61.6702 426.59 53.4502 440 53.4502C451.69 53.4502 457.86 59.8502 457.86 71.9702V113.13H470.67V70.0002C470.67 52.1802 460.93 41.9502 443.94 41.9502L443.93 41.9702Z" fill="black"/>
<path d="M539.19 56.1101C539.19 56.3601 539.15 56.4001 538.9 56.4001C538.54 56.4001 538.4 56.3601 538.03 55.6201C533.43 46.5601 525.34 41.9701 513.97 41.9701C497.93 41.9701 480.68 53.4101 480.68 78.5401C480.68 103.67 497.94 115.11 513.97 115.11C525.34 115.11 533.43 110.52 538.03 101.45C538.4 100.71 538.53 100.68 538.9 100.68C539.15 100.68 539.19 100.72 539.19 100.97V113.14H552V17.3801H539.19V56.1101ZM516.73 103.62C502.47 103.62 493.62 94.0101 493.62 78.5401C493.62 63.0701 502.48 53.4601 516.73 53.4601C530.98 53.4601 539.84 63.0701 539.84 78.5401C539.84 94.0101 530.98 103.62 516.73 103.62Z" fill="black"/>
<path d="M620.53 55.7102C620.33 56.4002 620.27 56.4002 619.83 56.4002C619.39 56.4002 619.16 56.2902 618.82 55.6102C613.65 46.4402 605.66 41.9802 594.38 41.9802C585.76 41.9802 577.82 45.1202 572.03 50.8102C565.65 57.0902 562.27 66.0002 562.27 76.5802C562.27 100.36 578.92 111.19 594.38 111.19C605.13 111.19 613.13 106.96 618.16 98.6202L618.23 98.5002C618.59 97.8902 618.74 97.6802 619.17 97.6802C619.42 97.6802 619.46 97.7202 619.46 97.9702V106.1C619.46 120.37 611.47 128.55 597.53 128.55C585.83 128.55 578.32 123.54 576.9 114.8L576.83 114.38H562.74L562.79 114.93C564.29 130.65 577.23 140.04 597.39 140.04C619.22 140.04 632.26 127.1 632.26 105.43V43.9302H623.5L620.52 55.7002L620.53 55.7102ZM597.66 99.6802C584.44 99.6802 575.2 90.1802 575.2 76.5702C575.2 62.9602 584.43 53.4602 597.66 53.4602C610.89 53.4602 620.12 62.9602 620.12 76.5702C620.12 90.1802 610.89 99.6802 597.66 99.6802Z" fill="black"/>
<path d="M697.18 79.8502C697.18 95.4002 690.1 103.62 676.69 103.62C665 103.62 658.83 97.2202 658.83 85.1002V43.9402H646.02V87.0702C646.02 104.89 655.77 115.12 672.76 115.12C684.36 115.12 691.58 111.03 696.16 101.86C696.37 101.43 696.5 101.35 696.89 101.35C697.14 101.35 697.18 101.39 697.18 101.64V113.16H709.99V43.9402H697.18V79.8602V79.8502Z" fill="black"/>
<path d="M737.68 17.3801H723.24V30.7701H737.68V17.3801Z" fill="black"/>
<path d="M736.87 43.9402H724.06V113.15H736.87V43.9402Z" fill="black"/>
<path d="M805.45 56.1101C805.45 56.3601 805.41 56.4001 805.16 56.4001C804.8 56.4001 804.66 56.3601 804.29 55.6201C799.69 46.5601 791.6 41.9701 780.23 41.9701C764.2 41.9701 746.94 53.4101 746.94 78.5401C746.94 103.67 764.2 115.11 780.23 115.11C791.6 115.11 799.69 110.52 804.29 101.45C804.66 100.71 804.79 100.68 805.16 100.68C805.41 100.68 805.45 100.72 805.45 100.97V113.14H818.26V17.3801H805.45V56.1101ZM783 103.62C768.74 103.62 759.89 94.0101 759.89 78.5401C759.89 63.0701 768.75 53.4601 783 53.4601C797.25 53.4601 806.11 63.0701 806.11 78.5401C806.11 94.0101 797.25 103.62 783 103.62Z" fill="black"/>
<path d="M883.91 90.5002L883.82 90.8802C881.67 99.6302 875.22 103.88 864.11 103.88C850.83 103.88 842.71 96.0302 841.75 82.3202H896.87V75.2602C896.87 54.7202 884.21 41.9702 863.84 41.9702C842.33 41.9702 828.97 55.9802 828.97 78.5402C828.97 101.1 841.77 115.11 864.1 115.11C885.08 115.11 894.92 102.7 897.12 91.0902L897.23 90.5002H883.9H883.91ZM863.84 53.2002C876.2 53.2002 883.35 59.6902 884.04 71.4802H842.13C844.11 60.0202 852.19 53.2002 863.84 53.2002Z" fill="black"/>
<path d="M390.17 102.31V68.7002C390.17 51.2102 380.15 41.9702 361.21 41.9702C342.27 41.9702 331.92 50.7302 331.33 65.4002L331.31 65.9202H344.51L344.53 65.4402C344.82 57.5502 350.75 53.2002 361.21 53.2002C372.35 53.2002 377.76 58.0602 377.76 68.0502V71.2402L353.32 72.2702C336.7 72.9702 327.92 79.9902 327.92 92.5802C327.92 106.06 338.66 115.12 354.66 115.12C366.59 115.12 372.52 110 375.48 104.91V104.93C375.92 104.21 376.31 103.5 376.65 102.82C376.87 102.38 376.99 102.17 377.38 102.17C377.77 102.17 377.91 102.48 377.91 102.7C377.91 109.7 382.73 112.96 390.19 113.14C390.41 113.14 396.11 113.16 396.11 113.16V103.07H390.94C390.52 103.07 390.18 102.73 390.18 102.31H390.17ZM356.61 103.88C346.66 103.88 340.71 99.6502 340.71 92.5702C340.71 86.6502 344.84 83.6002 353.35 83.2302L377.75 82.2002V82.4702C377.75 96.0702 370.04 103.88 356.61 103.88Z" fill="black"/>
</g>
<defs>
<clipPath id="clip0_58_64">
<rect width="897.24" height="150.67" fill="white"/>
</clipPath>
</defs>
</svg>
